<svg width="118" height="166" viewBox="0 0 118 166" fill="none" xmlns="http://www.w3.org/2000/svg">
<g style="mix-blend-mode:screen">
<path fill-rule="evenodd" clip-rule="evenodd" d="M32.5421 5.03109C29.1348 7.78668 25.9493 10.5913 25.4632 11.2637C24.585 12.479 24.5787 12.608 24.467 31.6919L24.3546 50.8967L13.4554 59.5816C7.46077 64.3583 1.98131 69.0381 1.27814 69.9816L0 71.6967V92.7048V113.713L1.0815 115.329C1.67652 116.219 4.99456 119.178 8.45536 121.906C13.6045 125.965 14.955 126.81 15.8886 126.557C17.5478 126.107 41.55 106.793 42.4766 105.162C43.2018 103.886 43.26 102.944 43.26 92.5251C43.26 81.9683 43.2104 81.1935 42.4624 80.0822C41.55 78.7259 40.0324 78.0573 39.0508 78.5784C38.6815 78.7749 34.2646 82.2351 29.2351 86.268C24.2059 90.3009 19.8178 93.7458 19.4839 93.9233C18.9679 94.1972 18.8771 93.5912 18.8771 89.8768V85.5079L23.8913 81.5267C30.8573 75.9959 31.7803 74.5645 30.632 71.0744C30.1833 69.7116 28.7887 68.5388 27.616 68.5388C26.5856 68.5388 13.8475 78.8381 12.9717 80.3795C12.2532 81.6443 12.1914 82.6064 12.1914 92.5436C12.1914 99.4035 12.3535 103.826 12.6358 104.684C13.1396 106.215 14.9577 107.461 16.0892 107.051C16.5056 106.901 21.1699 103.319 26.4539 99.0921C31.7379 94.8653 36.1838 91.4068 36.3337 91.4068C36.4835 91.4068 36.5547 93.3854 36.4917 95.8045L36.3777 100.202L25.956 108.555L15.5343 116.909L13.9612 115.672C13.096 114.992 11.1025 113.406 9.53135 112.149L6.67462 109.862L6.77844 92.6814L6.88227 75.5004L18.0905 66.5351C24.2551 61.6038 29.6527 57.0906 30.0853 56.5059C30.8349 55.4926 30.8809 54.5332 31.0685 36.0744L31.2652 16.7063L36.4387 12.5405C39.2844 10.2488 41.983 7.90756 42.4361 7.33695C43.5998 5.87176 43.5325 2.98495 42.2945 1.27148C40.6561 -0.996805 39.3949 -0.510589 32.5421 5.03109ZM44.6274 15.0511C39.1043 19.4488 37.832 20.6951 37.2633 22.2654C36.6459 23.9701 36.5759 26.1949 36.5806 44.0374C36.5846 58.8411 36.7112 64.2538 37.0773 65.2556C38.171 68.2475 40.793 68.7326 42.4624 66.2514C43.2324 65.1075 43.26 64.4013 43.26 45.8875V26.7083L46.0475 24.483C47.5805 23.2596 48.9078 22.2583 48.997 22.2583C49.0863 22.2583 49.1591 41.8426 49.1591 65.7794V109.3L48.0776 110.351C47.4829 110.929 44.9345 113.034 42.4152 115.03C39.8955 117.025 37.6035 119.042 37.3223 119.512C37.0408 119.981 36.8103 121.232 36.8103 122.291C36.8103 124.55 38.3779 126.798 39.9525 126.798C41.0513 126.798 53.0344 117.431 54.5009 115.426L55.4514 114.126V63.2672V12.4082L54.4859 11.0721C53.9176 10.2847 53.065 9.73536 52.4122 9.73536C51.7279 9.73536 48.7489 11.7695 44.6274 15.0511ZM69.8554 44.4076C65.1436 48.1492 63.0058 50.1627 62.4831 51.3497C61.7776 52.951 61.7465 55.1158 61.7453 102.935L61.7438 152.849L62.762 154.524C64.3567 157.148 65.3414 156.817 72.0872 151.393C79.9507 145.069 79.7147 145.289 80.1997 143.816C80.6543 142.435 80.8191 102.012 80.3766 100.415C80.084 99.3599 78.218 97.9405 77.1227 97.9405C76.6917 97.9405 75.8422 98.5318 75.2354 99.2538L74.1319 100.568L74.0151 119.92L73.8979 139.273L71.4588 141.29C70.1169 142.399 68.8864 143.404 68.7244 143.523C68.5623 143.643 68.4294 124.029 68.4294 99.936V56.1313L73.8035 51.8707C76.7593 49.5273 79.5024 47.1278 79.8992 46.5376C81.5883 44.0276 80.0628 39.1371 77.5907 39.1371C76.9202 39.1371 73.9045 41.1919 69.8554 44.4076ZM100.088 39.9375C99.4389 40.354 93.5988 44.9586 87.1098 50.1692C77.1577 58.1611 75.2023 59.935 74.612 61.5052C73.9974 63.1392 73.9254 64.6828 74.0221 74.1681L74.1319 84.9694L75.2354 86.2827C75.8422 87.0047 76.7455 87.5954 77.243 87.5954C77.982 87.5954 86.4948 81.1178 96.8433 72.6806L98.7114 71.1577V75.7248V80.2924L93.0078 84.7996C89.8706 87.2786 87.1275 89.7635 86.912 90.3211C85.7825 93.2433 87.2872 97.396 89.4754 97.396C90.0598 97.396 93.4702 95.0166 97.4053 91.8641C103.341 87.1081 104.389 86.0693 104.876 84.4554C105.32 82.9859 105.417 80.2722 105.322 71.9712L105.2 61.3642L104.097 60.0509C103.49 59.329 102.553 58.7382 102.015 58.7382C101.25 58.7382 85.9772 70.4058 81.5057 74.4061L80.6208 75.1977V70.6149V66.0326L91.2982 57.4897L101.976 48.9469L106.439 52.5355L110.903 56.1242V73.1167V90.1093L99.7929 98.9608C93.6822 103.829 88.1961 108.535 87.6014 109.419L86.5199 111.025V129.968V148.911L80.7774 153.508C74.7505 158.333 73.6812 159.782 74.1676 162.465C74.4854 164.216 76.1112 166 77.3897 166C78.4724 166 90.5022 156.677 91.9274 154.733C92.8115 153.527 92.8123 153.513 92.8123 134.437V115.348L94.0904 114.255C94.7936 113.654 100.041 109.431 105.752 104.871C113.265 98.8715 116.338 96.1279 116.868 94.9459C117.554 93.4153 117.594 92.0013 117.496 72.5429C117.397 52.8143 117.353 51.7145 116.624 50.5988C115.576 48.9959 103 39.1316 102.039 39.1583C101.615 39.1703 100.737 39.5209 100.088 39.9375Z" fill="#F7D370"/>
</g>
</svg>
