<svg width="215" height="215" viewBox="0 0 215 215" fill="none" xmlns="http://www.w3.org/2000/svg">
<circle cx="107.5" cy="107.5" r="107.5" fill="#1E1E1E"/>
<g style="mix-blend-mode:screen">
<path fill-rule="evenodd" clip-rule="evenodd" d="M81.5421 29.0311C78.1348 31.7867 74.9493 34.5913 74.4632 35.2637C73.585 36.479 73.5787 36.608 73.467 55.6919L73.3546 74.8967L62.4554 83.5816C56.4608 88.3583 50.9813 93.0381 50.2781 93.9816L49 95.6967V116.705V137.713L50.0815 139.329C50.6765 140.219 53.9946 143.178 57.4554 145.906C62.6045 149.965 63.955 150.81 64.8886 150.557C66.5478 150.107 90.55 130.793 91.4766 129.162C92.2018 127.886 92.26 126.944 92.26 116.525C92.26 105.968 92.2104 105.193 91.4624 104.082C90.55 102.726 89.0324 102.057 88.0508 102.578C87.6815 102.775 83.2646 106.235 78.2351 110.268C73.2059 114.301 68.8178 117.746 68.4839 117.923C67.9679 118.197 67.8771 117.591 67.8771 113.877V109.508L72.8913 105.527C79.8573 99.9959 80.7803 98.5645 79.632 95.0744C79.1833 93.7116 77.7887 92.5388 76.616 92.5388C75.5856 92.5388 62.8475 102.838 61.9717 104.379C61.2532 105.644 61.1914 106.606 61.1914 116.544C61.1914 123.403 61.3535 127.826 61.6358 128.684C62.1396 130.215 63.9577 131.461 65.0892 131.051C65.5056 130.901 70.1699 127.319 75.4539 123.092C80.7379 118.865 85.1838 115.407 85.3337 115.407C85.4835 115.407 85.5547 117.385 85.4917 119.805L85.3777 124.202L74.956 132.555L64.5343 140.909L62.9612 139.672C62.096 138.992 60.1025 137.406 58.5314 136.149L55.6746 133.862L55.7784 116.681L55.8823 99.5004L67.0905 90.5351C73.2551 85.6038 78.6527 81.0906 79.0853 80.5059C79.8349 79.4926 79.8809 78.5332 80.0685 60.0744L80.2652 40.7063L85.4387 36.5405C88.2844 34.2488 90.983 31.9076 91.4361 31.3369C92.5998 29.8718 92.5325 26.9849 91.2945 25.2715C89.6561 23.0032 88.3949 23.4894 81.5421 29.0311ZM93.6274 39.0511C88.1043 43.4488 86.832 44.6951 86.2633 46.2654C85.6459 47.9701 85.5759 50.1949 85.5806 68.0374C85.5846 82.8411 85.7112 88.2538 86.0773 89.2556C87.171 92.2475 89.793 92.7326 91.4624 90.2514C92.2324 89.1075 92.26 88.4013 92.26 69.8875V50.7083L95.0475 48.483C96.5805 47.2596 97.9078 46.2583 97.997 46.2583C98.0863 46.2583 98.1591 65.8426 98.1591 89.7794V133.3L97.0776 134.351C96.4829 134.929 93.9345 137.034 91.4152 139.03C88.8955 141.025 86.6035 143.042 86.3223 143.512C86.0408 143.981 85.8103 145.232 85.8103 146.291C85.8103 148.55 87.3779 150.798 88.9525 150.798C90.0513 150.798 102.034 141.431 103.501 139.426L104.451 138.126V87.2672V36.4082L103.486 35.0721C102.918 34.2847 102.065 33.7354 101.412 33.7354C100.728 33.7354 97.7489 35.7695 93.6274 39.0511ZM118.855 68.4076C114.144 72.1492 112.006 74.1627 111.483 75.3497C110.778 76.951 110.747 79.1158 110.745 126.935L110.744 176.849L111.762 178.524C113.357 181.148 114.341 180.817 121.087 175.393C128.951 169.069 128.715 169.289 129.2 167.816C129.654 166.435 129.819 126.012 129.377 124.415C129.084 123.36 127.218 121.94 126.123 121.94C125.692 121.94 124.842 122.532 124.235 123.254L123.132 124.568L123.015 143.92L122.898 163.273L120.459 165.29C119.117 166.399 117.886 167.404 117.724 167.523C117.562 167.643 117.429 148.029 117.429 123.936V80.1313L122.803 75.8707C125.759 73.5273 128.502 71.1278 128.899 70.5376C130.588 68.0276 129.063 63.1371 126.591 63.1371C125.92 63.1371 122.905 65.1919 118.855 68.4076ZM149.088 63.9375C148.439 64.354 142.599 68.9586 136.11 74.1692C126.158 82.1611 124.202 83.935 123.612 85.5052C122.997 87.1392 122.925 88.6828 123.022 98.1681L123.132 108.969L124.235 110.283C124.842 111.005 125.746 111.595 126.243 111.595C126.982 111.595 135.495 105.118 145.843 96.6806L147.711 95.1577V99.7248V104.292L142.008 108.8C138.871 111.279 136.128 113.764 135.912 114.321C134.783 117.243 136.287 121.396 138.475 121.396C139.06 121.396 142.47 119.017 146.405 115.864C152.341 111.108 153.389 110.069 153.876 108.455C154.32 106.986 154.417 104.272 154.322 95.9712L154.2 85.3642L153.097 84.0509C152.49 83.329 151.553 82.7382 151.015 82.7382C150.25 82.7382 134.977 94.4058 130.506 98.4061L129.621 99.1977V94.6149V90.0326L140.298 81.4897L150.976 72.9469L155.439 76.5355L159.903 80.1242V97.1167V114.109L148.793 122.961C142.682 127.829 137.196 132.535 136.601 133.419L135.52 135.025V153.968V172.911L129.777 177.508C123.75 182.333 122.681 183.782 123.168 186.465C123.485 188.216 125.111 190 126.39 190C127.472 190 139.502 180.677 140.927 178.733C141.812 177.527 141.812 177.513 141.812 158.437V139.348L143.09 138.255C143.794 137.654 149.041 133.431 154.752 128.871C162.265 122.872 165.338 120.128 165.868 118.946C166.554 117.415 166.594 116.001 166.496 96.5429C166.397 76.8143 166.353 75.7145 165.624 74.5988C164.576 72.9959 152 63.1316 151.039 63.1583C150.615 63.1703 149.737 63.5209 149.088 63.9375Z" fill="#F7D40B"/>
</g>
</svg>
